<svg width="132.675" height="112.16" viewBox="0 0 35.103 29.676" xmlns="http://www.w3.org/2000/svg"><path class="st29" d="M140.103 131.714a2.79 2.79 0 0 1 0 3.934c-3.85 3.865-12.729 12.078-18.66 12.078-7.758 0-14.045-6.289-14.045-14.044 0-7.755 6.29-14.044 14.044-14.044 5.932-.003 14.812 8.21 18.661 12.076z" style="fill:#000;stroke:#000;stroke-width:.264583;stroke-miterlimit:10" transform="translate(-105.943 -118.183)"/><path class="st29" d="M138.78 130.39a2.79 2.79 0 0 1 0 3.935c-3.85 3.866-12.729 12.078-18.66 12.078-7.758 0-14.045-6.289-14.045-14.044 0-7.755 6.29-14.044 14.044-14.044 5.932-.003 14.812 8.21 18.662 12.076z" style="fill:#fff;stroke:#000;stroke-width:.264583;stroke-miterlimit:10" transform="translate(-105.943 -118.183)"/></svg>