<svg width="132.675" height="112.16" viewBox="0 0 35.103 29.676" xmlns="http://www.w3.org/2000/svg"><path class="st29" d="M141.464 40.708a2.79 2.79 0 0 0 0 3.935c3.85 3.865 12.73 12.078 18.661 12.078 7.758 0 14.044-6.29 14.044-14.044 0-7.758-6.289-14.044-14.044-14.044-5.932-.003-14.811 8.21-18.66 12.075z" style="fill:#000;stroke:#000;stroke-width:.264583;stroke-miterlimit:10" transform="translate(-139.198 -27.178)"/><path class="st3" d="M140.141 39.386a2.79 2.79 0 0 0 0 3.934c3.85 3.865 12.73 12.078 18.661 12.078 7.758 0 14.045-6.29 14.045-14.044 0-7.758-6.29-14.044-14.045-14.044-5.932-.003-14.81 8.21-18.66 12.076z" style="fill:#fff;stroke-width:.264583" transform="translate(-139.198 -27.178)"/><path class="st29" d="M140.141 39.386a2.79 2.79 0 0 0 0 3.934c3.85 3.865 12.73 12.078 18.661 12.078 7.758 0 14.045-6.29 14.045-14.044 0-7.758-6.29-14.044-14.045-14.044-5.932-.003-14.81 8.21-18.66 12.076z" style="fill:none;stroke:#000;stroke-width:.264583;stroke-miterlimit:10" transform="translate(-139.198 -27.178)"/></svg>