<svg width="226.68" height="981.91" viewBox="0 0 59.976 259.797" xmlns="http://www.w3.org/2000/svg"><path class="st29" d="M30.046 174.605V-13.593c0-9.554-7.745-17.298-17.299-17.298-9.554 0-17.298 7.744-17.298 17.298v188.198c-7.22 5.318-11.907 13.875-11.907 23.53 0 16.129 13.076 29.204 29.205 29.204 16.13 0 29.205-13.075 29.205-29.204 0-9.655-4.686-18.214-11.906-23.53zm-17.532 46.408c-12.687 0-22.974-10.284-22.974-22.974 0-8.482 4.599-15.893 11.441-19.87V-14.524c0-6.369 5.165-11.534 11.533-11.534 6.369 0 11.533 5.165 11.533 11.534v192.693c6.84 3.98 11.441 11.388 11.441 19.87 0 12.69-10.287 22.974-22.974 22.974z" style="fill:#000;stroke:#000;stroke-width:.264583;stroke-miterlimit:10" transform="translate(17.892 32.325)"/><path class="st3" d="M28.744 173.303V-14.895c0-9.554-7.745-17.298-17.299-17.298-9.554 0-17.298 7.744-17.298 17.298v188.198c-7.22 5.319-11.906 13.875-11.906 23.53 0 16.129 13.075 29.205 29.204 29.205 16.13 0 29.205-13.076 29.205-29.205 0-9.655-4.686-18.214-11.906-23.53zm-17.531 46.408c-12.687 0-22.974-10.284-22.974-22.973 0-8.483 4.598-15.894 11.44-19.87V-15.827c0-6.369 5.165-11.533 11.534-11.533 6.368 0 11.533 5.164 11.533 11.533v192.693c6.84 3.98 11.44 11.388 11.44 19.87 0 12.69-10.287 22.974-22.973 22.974z" style="fill:#fff;stroke:#000;stroke-width:.264583" transform="translate(17.892 32.325)"/></svg>