<?xml version="1.0" encoding="UTF-8" standalone="no"?>
<!-- Created with Inkscape (http://www.inkscape.org/) -->

<svg
   width="262.73123mm"
   height="121.50933mm"
   viewBox="0 0 262.73123 121.50933"
   version="1.1"
   id="svg995"
   xmlns="http://www.w3.org/2000/svg"
   xmlns:svg="http://www.w3.org/2000/svg">
  <defs
     id="defs992" />
  <g
     id="layer1"
     transform="translate(91.221291,-35.183476)">
    <path
       id="Datumsfeld"
       class="st34"
       d="M 67.131831,122.0324 H 10.246415 c -4.3841456,0 -7.9374997,3.55335 -7.9374997,7.9375 v 18.78541 c 0,4.38415 3.5533541,7.9375 7.9374997,7.9375 h 56.885416 c 4.384146,0 7.9375,-3.55335 7.9375,-7.9375 V 129.9699 c 0,-4.38415 -3.553354,-7.9375 -7.9375,-7.9375 z"
       style="fill:#242424;stroke-width:0.264583" />
    <path
       id="Dunkelblauer_x5F_Eckbereich"
       class="st39"
       d="m -31.028584,63.824063 h -23.01875 c -16.073437,0 -29.104166,13.030729 -29.104166,29.104167 v 0 c 0,16.07344 13.030729,29.10417 29.104166,29.10417 h 23.01875 z"
       style="opacity:0.75;fill:#011683;stroke-width:0.264583" />
    <path
       id="Dunkelblauer_x5F_Eckbereich_1_"
       class="st39"
       d="m 131.69016,122.0324 v 0 c 16.07344,0 29.10417,-13.03073 29.10417,-29.10417 v 0 c 0,-16.073438 -13.03073,-29.104167 -29.10417,-29.104167 v 0 z"
       style="opacity:0.75;fill:#011683;stroke-width:0.264583" />
    <line
       id="Trennlinie_x5F_03"
       class="st43"
       x1="13.685999"
       y1="61.971981"
       x2="13.685999"
       y2="123.88448"
       style="fill:#ffc80c;stroke:#ffffff;stroke-width:2.97423;stroke-miterlimit:10" />
    <line
       id="Trennlinie_x5F_02"
       class="st43"
       x1="60.64954"
       y1="61.442814"
       x2="60.64954"
       y2="124.14906"
       style="fill:#ffc80c;stroke:#ffffff;stroke-width:2.97423;stroke-miterlimit:10" />
    <line
       id="Trennlinie_x5F_01"
       class="st43"
       x1="107.2162"
       y1="61.707397"
       x2="107.2162"
       y2="124.14906"
       style="fill:#ffc80c;stroke:#ffffff;stroke-width:2.97423;stroke-miterlimit:10" />
    <line
       class="st42"
       x1="-29.308792"
       y1="92.92823"
       x2="129.17662"
       y2="92.92823"
       id="line309"
       style="opacity:0.25;fill:#00aed8;stroke:#ffffff;stroke-width:1.32292;stroke-linecap:round;stroke-miterlimit:10" />
    <path
       class="st21"
       d="M 134.60058,58.00323 H -52.459834 c -20.312062,0 -36.777083,16.465021 -36.777083,36.777083 v 0 c 0,20.312067 16.465021,36.777087 36.777083,36.777087 H 134.60058 c 20.31206,0 36.77708,-16.46502 36.77708,-36.777087 v 0 c 0,-20.312062 -16.46502,-36.777083 -36.77708,-36.777083 z m 28.04583,36.777083 c 0,16.073437 -13.03073,29.104167 -29.10416,29.104167 H -52.195251 c -16.073437,0 -29.104166,-13.03073 -29.104166,-29.104167 v 0 c 0,-16.073437 13.030729,-29.104166 29.104166,-29.104166 H 133.54225 c 16.07343,0 29.10416,13.030729 29.10416,29.104166 z"
       id="path315"
       style="fill:none;stroke:#000000;stroke-width:0.264583;stroke-miterlimit:10" />
    <path
       class="st21"
       d="M 132.7485,56.151147 H -54.311917 c -20.312063,0 -36.777083,16.46502 -36.777083,36.777083 v 0 c 0,20.31206 16.46502,36.77708 36.777083,36.77708 H 132.7485 c 20.31206,0 36.77708,-16.46502 36.77708,-36.77708 v 0 c 0,-20.312063 -16.46502,-36.777083 -36.77708,-36.777083 z m 28.04583,36.777083 c 0,16.07344 -13.03073,29.10417 -29.10417,29.10417 H -54.047334 c -16.073437,0 -29.104166,-13.03073 -29.104166,-29.10417 v 0 c 0,-16.073438 13.030729,-29.104167 29.104166,-29.104167 H 131.69016 c 16.07344,0 29.10417,13.030729 29.10417,29.104167 z"
       id="path321"
       style="fill:none;stroke:#000000;stroke-width:0.264583;stroke-miterlimit:10" />
    <line
       id="Mast_1_"
       class="st48"
       x1="142.79736"
       y1="82.654465"
       x2="142.79736"
       y2="100.32598"
       style="fill:#ffc80c;stroke:#ffffff;stroke-width:1.5621;stroke-linecap:round;stroke-miterlimit:10" />
    <path
       id="Flagge_1_"
       class="st12"
       d="m 154.48137,87.533376 -9.10166,-5.254625 c -0.21432,-0.124355 -0.48155,0.03175 -0.48155,0.277812 v 10.50925 c 0,0.246063 0.26723,0.399521 0.48155,0.277813 l 9.10166,-5.254625 c 0.21431,-0.124355 0.21431,-0.431271 0,-0.555625 z"
       style="fill:#ffffff;stroke-width:0.264583" />
    <path
       d="m -43.972001,86.086105 -7.8105,7.8105 -7.8105,-7.8105 c -6.183312,-6.183313 1.627188,-13.993813 7.8105,-7.8105 6.199188,-6.199188 14.007042,1.611312 7.8105,7.8105 z"
       id="path348"
       style="stroke-width:0.264583" />
    <path
       class="st40"
       d="m -45.030334,85.027771 -7.8105,7.8105 -7.8105,-7.8105 c -6.183312,-6.183312 1.627188,-13.993812 7.8105,-7.810499 6.199187,-6.199188 14.007041,1.611312 7.8105,7.810499 z"
       id="path352"
       style="fill:#a3d869;stroke-width:0.264583" />
    <path
       class="st11"
       d="m 13.942644,36.767772 c -3.511021,0 -6.3579371,2.846917 -6.3579371,6.357937 0,3.511021 2.8469161,6.357938 6.3579371,6.357938 3.511021,0 6.357938,-2.846917 6.357938,-6.357938 0,-3.51102 -2.846917,-6.357937 -6.357938,-6.357937 z m 0,10.757958 c -2.431521,0 -4.4000205,-1.971146 -4.4000205,-4.400021 0,-2.428874 1.9711455,-4.40002 4.4000205,-4.40002 2.428875,0 4.400021,1.971146 4.400021,4.40002 0,2.428875 -1.9685,4.400021 -4.400021,4.400021 z"
       id="path390"
       style="fill:#00aed8;stroke-width:0.264583" />
    <path
       class="st11"
       d="m 21.335103,37.807585 c -0.592667,0.486833 -1.169459,0.992187 -1.751542,1.486958 l -1.730375,1.508125 -3.46075,3.01625 -3.468688,3.008312 -1.7462495,1.49225 -0.873125,0.746125 c -0.2910417,0.248709 -0.60325,0.47625 -1.0027708,0.616479 -0.00529,0.0026 -0.00794,0 -0.010583,-0.0053 0,-0.0026 0,-0.0026 0,-0.0053 0.1402291,-0.399521 0.3704166,-0.709083 0.6217708,-0.997479 l 0.7514166,-0.867833 1.5054789,-1.735667 3.034771,-3.444875 3.042708,-3.439583 1.521354,-1.719792 c 0.500063,-0.579437 1.008063,-1.153583 1.500188,-1.740958 0.521229,-0.624417 1.449916,-0.706438 2.074333,-0.185209 0.624417,0.52123 0.706438,1.449917 0.185208,2.074334 -0.05821,0.07144 -0.127,0.137583 -0.193145,0.193146 z"
       id="path392"
       style="fill:#00aed8;stroke-width:0.264583" />
    <path
       class="st11"
       d="M 20.006894,49.967834 6.2988319,37.749376 C 5.692936,37.209626 5.6400194,36.280939 6.1797694,35.675043 c 0.53975,-0.605896 1.4684374,-0.658813 2.0743333,-0.119063 0.042333,0.03969 0.089958,0.08467 0.127,0.127 L 20.493728,49.481001 c 0.127,0.142875 0.111125,0.362479 -0.03175,0.486833 -0.129646,0.119063 -0.325438,0.116417 -0.455084,0 z"
       id="path396"
       style="fill:#00aed8;stroke-width:0.264583" />
    <path
       class="st54"
       d="m 60.773894,36.767772 c -3.511021,0 -6.357938,2.846917 -6.357938,6.357937 0,3.511021 2.846917,6.357938 6.357938,6.357938 3.51102,0 6.357937,-2.846917 6.357937,-6.357938 0,-3.51102 -2.846917,-6.357937 -6.357937,-6.357937 z m 0,10.757958 c -2.431521,0 -4.402667,-1.971146 -4.402667,-4.400021 0,-2.428874 1.971146,-4.40002 4.402667,-4.40002 2.43152,0 4.40002,1.971146 4.40002,4.40002 0,2.428875 -1.9685,4.400021 -4.40002,4.400021 z"
       id="path409"
       style="fill:#806406;stroke-width:0.264583" />
    <path
       class="st54"
       d="m 68.166352,37.807585 c -0.592667,0.486833 -1.169458,0.992187 -1.751542,1.486958 l -1.730375,1.508125 -3.46075,3.01625 -3.468687,3.008312 -1.74625,1.49225 -0.873125,0.746125 c -0.291042,0.248709 -0.60325,0.47625 -1.002771,0.616479 -0.0053,0.0026 -0.0079,0 -0.01058,-0.0053 0,-0.0026 0,-0.0026 0,-0.0053 0.140229,-0.399521 0.370416,-0.709083 0.621771,-0.997479 l 0.751416,-0.867833 1.505479,-1.735667 3.034771,-3.444875 3.042708,-3.439583 1.521355,-1.719792 c 0.500062,-0.579437 1.008062,-1.153583 1.500187,-1.740958 0.521229,-0.624417 1.449917,-0.706438 2.074333,-0.185209 0.624417,0.52123 0.706438,1.449917 0.185209,2.074334 -0.05821,0.07144 -0.127,0.137583 -0.193146,0.193146 z"
       id="path413"
       style="fill:#806406;stroke-width:0.264583" />
    <path
       class="st54"
       d="M 66.838144,49.967834 53.130081,37.749376 c -0.605896,-0.53975 -0.658812,-1.468437 -0.119062,-2.074333 0.53975,-0.605896 1.468437,-0.658813 2.074333,-0.119063 0.04233,0.03969 0.08996,0.08467 0.127,0.127 l 12.112625,13.798021 c 0.127,0.142875 0.111125,0.362479 -0.03175,0.486833 -0.129646,0.119063 -0.325438,0.116417 -0.455083,0 z"
       id="path419"
       style="fill:#806406;stroke-width:0.264583" />
    <path
       class="st54"
       d="m 107.34056,36.767772 c -3.51102,0 -6.35794,2.846917 -6.35794,6.357937 0,3.511021 2.84692,6.357938 6.35794,6.357938 3.51102,0 6.35794,-2.846917 6.35794,-6.357938 0,-3.51102 -2.84692,-6.357937 -6.35794,-6.357937 z m 0,10.757958 c -2.43152,0 -4.40267,-1.971146 -4.40267,-4.400021 0,-2.428874 1.97115,-4.40002 4.40267,-4.40002 2.43152,0 4.40002,1.971146 4.40002,4.40002 0,2.428875 -1.9685,4.400021 -4.40002,4.400021 z"
       id="path425"
       style="fill:#806406;stroke-width:0.264583" />
    <path
       class="st54"
       d="m 114.73302,37.807585 c -0.59267,0.486833 -1.16946,0.992187 -1.75154,1.486958 l -1.73038,1.508125 -3.46075,3.01625 -3.46869,3.008312 -1.74625,1.49225 -0.87312,0.746125 c -0.29104,0.248709 -0.60325,0.47625 -1.00277,0.616479 -0.005,0.0026 -0.008,0 -0.0106,-0.0053 0,-0.0026 0,-0.0026 0,-0.0053 0.14023,-0.399521 0.37042,-0.709083 0.62178,-0.997479 l 0.75141,-0.867833 1.50548,-1.735667 3.03477,-3.444875 3.04271,-3.439583 1.52135,-1.719792 c 0.50007,-0.579437 1.00807,-1.153583 1.50019,-1.740958 0.52123,-0.624417 1.44992,-0.706438 2.07434,-0.185209 0.62441,0.52123 0.70643,1.449917 0.1852,2.074334 -0.0582,0.07144 -0.127,0.137583 -0.19314,0.193146 z"
       id="path429"
       style="fill:#806406;stroke-width:0.264583" />
    <path
       class="st54"
       d="M 113.40481,49.967834 99.696747,37.749376 c -0.605895,-0.53975 -0.658812,-1.468437 -0.119062,-2.074333 0.539745,-0.605896 1.468435,-0.658813 2.074335,-0.119063 0.0423,0.03969 0.09,0.08467 0.127,0.127 l 12.11262,13.798021 c 0.127,0.142875 0.11113,0.362479 -0.0318,0.486833 -0.12964,0.119063 -0.32543,0.116417 -0.45508,0 z"
       id="path435"
       style="fill:#806406;stroke-width:0.264583" />
  </g>
</svg>
