<svg xmlns="http://www.w3.org/2000/svg" width="993" height="459.248" viewBox="0 0 262.731 121.509">
  <path class="st34" d="M67.132 122.032H10.246a7.937 7.937 0 0 0-7.937 7.938v18.785a7.937 7.937 0 0 0 7.937 7.938h56.886a7.937 7.937 0 0 0 7.937-7.938V129.97a7.937 7.937 0 0 0-7.937-7.938z" style="fill:#242424;stroke-width:.264583" transform="translate(91.221 -35.183)"/>
  <path class="st39" d="M-31.029 63.824h-23.018c-16.074 0-29.105 13.03-29.105 29.104 0 16.074 13.031 29.104 29.105 29.104h23.018zM131.69 122.032c16.074 0 29.104-13.03 29.104-29.104 0-16.073-13.03-29.104-29.104-29.104z" style="stroke-width:.264583;fill:#013c98" transform="translate(91.221 -35.183)"/>
  <path class="st42" style="display: none;opacity:.25;fill:#00aed8;stroke:#fff;stroke-width:1.32292;stroke-linecap:round;stroke-miterlimit:10" d="M-29.309 92.928h158.486" transform="translate(91.221 -35.183)"/>
  <path class="st21" d="M134.6 58.003H-52.46c-20.312 0-36.777 16.465-36.777 36.777s16.465 36.777 36.777 36.777H134.6c20.313 0 36.778-16.465 36.778-36.777S154.913 58.003 134.6 58.003zm28.046 36.777c0 16.074-13.03 29.104-29.104 29.104H-52.195c-16.074 0-29.104-13.03-29.104-29.104 0-16.073 13.03-29.104 29.104-29.104h185.737c16.074 0 29.104 13.03 29.104 29.104z" style="opacity:.75;stroke-miterlimit:10;stroke-width:.264583;fill:#000" transform="translate(91.221 -35.183)"/>
  <path class="st21" d="M132.749 56.151h-187.06c-20.313 0-36.778 16.465-36.778 36.777s16.465 36.777 36.777 36.777h187.06c20.313 0 36.778-16.465 36.778-36.777s-16.465-36.777-36.778-36.777zm28.045 36.777c0 16.074-13.03 29.104-29.104 29.104H-54.047c-16.074 0-29.105-13.03-29.105-29.104 0-16.073 13.031-29.104 29.105-29.104H131.69c16.074 0 29.104 13.03 29.104 29.104z" style="stroke-miterlimit:10;stroke-width:.264583;stroke:#000;fill:#fff" transform="translate(91.221 -35.183)"/>
  <path class="st48" style="fill:#ffc80c;stroke:#fff;stroke-width:1.5621;stroke-linecap:round;stroke-miterlimit:10" d="M142.797 82.654v17.672" transform="translate(91.221 -35.183)"/>
  <path class="st12" d="m154.481 87.533-9.101-5.254a.321.321 0 0 0-.482.278v10.509c0 .246.267.4.482.278l9.101-5.255a.32.32 0 0 0 0-.556z" style="fill:#fff;stroke-width:.264583" transform="translate(91.221 -35.183)"/>
  <path d="m-43.972 86.086-7.81 7.81-7.811-7.81c-6.183-6.183 1.627-13.994 7.81-7.81 6.2-6.2 14.008 1.61 7.811 7.81z" style="stroke-width:.264583" transform="translate(91.221 -35.183)"/>
  <path class="heart" d="m-45.03 85.028-7.81 7.81-7.811-7.81c-6.184-6.184 1.627-13.994 7.81-7.81 6.2-6.2 14.007 1.61 7.81 7.81z" style="fill:#a3d869;stroke-width:.264583" transform="translate(91.221 -35.183)"/>
  <path class="vote1" d="M18.943 36.768a6.358 6.358 0 1 0 0 12.717 6.358 6.358 0 0 0 0-12.717zm0 10.758a4.4 4.4 0 1 1 0-8.8 4.4 4.4 0 0 1 0 8.8z" style="fill:#806406;stroke-width:.264583" transform="translate(91.221 -35.183)"/>
  <path class="vote1" d="M26.335 37.808c-.593.486-1.17.992-1.751 1.487l-1.73 1.508-3.462 3.016-3.468 3.008-1.747 1.492-.873.747c-.29.248-.603.476-1.002.616-.006.003-.008 0-.011-.005v-.006c.14-.399.37-.709.622-.997l.751-.868 1.506-1.735 3.034-3.445 3.043-3.44 1.522-1.72c.5-.58 1.008-1.153 1.5-1.74a1.473 1.473 0 1 1 2.066 2.082z" style="fill:#806406;stroke-width:.264583" transform="translate(91.221 -35.183)"/>
  <path class="vote1" d="M20.007 49.968 6.299 37.749a1.47 1.47 0 1 1 2.082-2.066l12.113 13.798a.344.344 0 0 1-.032.487.337.337 0 0 1-.455 0z" style="fill:#806406;stroke-width:.264583" transform="translate(96.221 -35.183)"/>
  <path class="vote2" d="M60.774 36.768a6.358 6.358 0 1 0 0 12.717 6.358 6.358 0 0 0 0-12.717zm0 10.758a4.402 4.402 0 0 1-4.403-4.4 4.402 4.402 0 0 1 8.803 0 4.4 4.4 0 0 1-4.4 4.4z" style="fill:#806406;stroke-width:.264583" transform="translate(98.221 -35.183)"/>
  <path class="vote2" d="M68.166 37.808c-.592.486-1.17.992-1.751 1.487l-1.73 1.508-3.461 3.016-3.469 3.008-1.746 1.492-.873.747c-.291.248-.604.476-1.003.616-.005.003-.008 0-.01-.005v-.006c.14-.399.37-.709.621-.997l.751-.868 1.506-1.735 3.035-3.445 3.042-3.44 1.522-1.72c.5-.58 1.008-1.153 1.5-1.74a1.473 1.473 0 1 1 2.066 2.082z" style="fill:#806406;stroke-width:.264583" transform="translate(98.221 -35.183)"/>
  <path class="vote2" d="M66.838 49.968 53.13 37.749a1.47 1.47 0 1 1 2.082-2.066l12.113 13.798a.344.344 0 0 1-.032.487.337.337 0 0 1-.455 0z" style="fill:#806406;stroke-width:.264583" transform="translate(98.221 -35.183)"/>
  <path class="vote3" d="M107.34 36.768a6.358 6.358 0 1 0 .002 12.717 6.358 6.358 0 0 0-.001-12.717zm0 10.758a4.402 4.402 0 0 1-4.402-4.4 4.402 4.402 0 0 1 8.803 0 4.4 4.4 0 0 1-4.4 4.4z" style="fill:#806406;stroke-width:.264583" transform="translate(102.221 -35.183)"/>
  <path class="vote3" d="M114.733 37.808c-.593.486-1.17.992-1.752 1.487l-1.73 1.508-3.46 3.016-3.47 3.008-1.746 1.492-.873.747c-.29.248-.603.476-1.002.616-.005.003-.008 0-.011-.005v-.006c.14-.399.37-.709.622-.997l.751-.868 1.506-1.735 3.034-3.445 3.043-3.44 1.521-1.72c.5-.58 1.008-1.153 1.5-1.74a1.473 1.473 0 1 1 2.067 2.082z" style="fill:#806406;stroke-width:.264583" transform="translate(102.221 -35.183)"/>
  <path class="vote3" d="M113.405 49.968 99.697 37.749a1.47 1.47 0 1 1 2.082-2.066l12.113 13.798a.344.344 0 0 1-.032.487.337.337 0 0 1-.455 0z" style="fill:#806406;stroke-width:.264583" transform="translate(102.221 -35.183)"/>
  <path class="st43" style="fill:#ffc80c;stroke:#fff;stroke-width:2.97423;stroke-miterlimit:10" d="M114.216 61.707v62.442M62.65 61.443v62.706M13.686 61.972v61.912" transform="translate(96.221 -35.183)"/>
</svg>
