<?xml version="1.0" encoding="UTF-8" standalone="no"?>
<!-- Created with Inkscape (http://www.inkscape.org/) -->

<svg
   width="33.045681mm"
   height="29.479368mm"
   viewBox="0 0 33.045681 29.479368"
   version="1.1"
   id="svg193"
   xmlns="http://www.w3.org/2000/svg"
   xmlns:svg="http://www.w3.org/2000/svg">
  <defs
     id="defs190" />
  <g
     id="layer1"
     transform="translate(-76.098294,-7.7139246)">
    <g
       id="Original_x5F_Herz_3_"
       transform="matrix(0.26462394,0,0,0.26452518,48.083937,-46.09775)">
      <g
         id="g308">
        <path
           d="m 170.78,221.93 c -36.79,-36.79 -83.26,9.67 -46.47,46.47 l 46.47,46.47 46.47,-46.47 c 36.87,-36.88 -9.59,-83.34 -46.47,-46.47 z"
           id="path304" />
        <path
           class="st29"
           d="m 170.78,221.93 c -36.79,-36.79 -83.26,9.67 -46.47,46.47 l 46.47,46.47 46.47,-46.47 c 36.87,-36.88 -9.59,-83.34 -46.47,-46.47 z"
           id="path306" />
      </g>
      <g
         id="g318">
        <g
           id="g312">
          <path
             class="st3"
             d="m 165.78,216.93 c -36.79,-36.79 -83.26,9.67 -46.47,46.47 l 46.47,46.47 46.47,-46.47 c 36.87,-36.88 -9.59,-83.34 -46.47,-46.47 z"
             id="path310" />
        </g>
        <g
           id="g316">
          <path
             class="st29"
             d="m 165.78,216.93 c -36.79,-36.79 -83.26,9.67 -46.47,46.47 l 46.47,46.47 46.47,-46.47 c 36.87,-36.88 -9.59,-83.34 -46.47,-46.47 z"
             id="path314" />
        </g>
      </g>
    </g>
    <path
       class="st31"
       d="M 91.953434,11.283862 C 82.219414,1.5498411 69.924226,13.842383 79.658247,23.579049 L 91.953434,35.874236 104.24862,23.579049 C 114.00381,13.821216 101.71127,1.5286744 91.953434,11.283862 Z"
       id="path333"
       style="fill:#1ab25d;stroke-width:0.264583" />
  </g>
</svg>
