<svg width="522.896" height="522.825" viewBox="0 0 138.35 138.331" xmlns="http://www.w3.org/2000/svg"><path style="fill:#000;stroke-width:.270213" d="M17.611 202.488a19.657 19.657 0 0 1-14.014-11.593c-1.614-3.833-1.537-.984-1.537-57.135 0-45.919.046-51.584.43-53.446 1.616-7.824 7.474-13.682 15.299-15.299 1.861-.384 7.527-.43 53.445-.43 45.92 0 51.584.046 53.446.43 7.824 1.617 13.683 7.475 15.299 15.3.384 1.86.43 7.526.43 53.445 0 45.918-.046 51.584-.43 53.445-1.616 7.825-7.475 13.683-15.3 15.3-1.863.384-7.486.427-53.636.407-44.579-.019-51.808-.076-53.432-.424zm107.194-8.963c3.003-1.213 5.277-3.591 6.336-6.628.461-1.32.486-4.037.486-53.137s-.025-51.817-.486-53.137c-1.06-3.037-3.333-5.416-6.336-6.628l-1.555-.628H71.37c-49.231 0-51.952.025-53.273.486-3.037 1.06-5.415 3.333-6.628 6.337l-.627 1.554-.072 51.205c-.048 34.55.02 51.645.208 52.557.642 3.098 2.827 6.116 5.366 7.411 2.751 1.404.089 1.342 55.43 1.287l51.476-.052zM38.304 163.85c-1.909-2.598-2.424-3.473-2.15-3.655 1.737-1.157 6.036-3.555 8.463-4.721 14.938-7.177 31.222-8.572 45.232-3.876 5.702 1.91 10.364 4.348 16.598 8.676.188.131-3.587 5.62-4.696 6.828-.125.136-1.377-.527-2.872-1.52-14.097-9.368-30.217-10.802-46.746-4.159-3.569 1.434-4.936 2.118-8.436 4.22-1.486.893-2.743 1.623-2.792 1.623-.05 0-1.22-1.537-2.601-3.416zm6.585-37.951c-.743-.113-1.757-.331-2.252-.484-2.582-.795-5.482-3.38-6.773-6.036-3.879-7.984 1.845-17.234 10.664-17.234 7.905 0 13.58 7.351 11.587 15.007-1.512 5.807-7.32 9.648-13.226 8.747zm49.232.016c-4.432-.546-8.602-4.286-9.767-8.763a11.922 11.922 0 0 1 11.587-15.007c7.28 0 12.882 6.531 11.77 13.72-1.012 6.534-6.883 10.876-13.59 10.05z" transform="translate(-2.06 -64.585)"/></svg>