<?xml version="1.0" encoding="UTF-8" standalone="no"?>
<!-- Created with Inkscape (http://www.inkscape.org/) -->

<svg
   width="63.537861mm"
   height="257.07263mm"
   viewBox="0 0 63.537861 257.07263"
   version="1.1"
   id="svg3698"
   inkscape:version="1.1 (c4e8f9ed74, 2021-05-24)"
   sodipodi:docname="thermometer.svg"
   xmlns:inkscape="http://www.inkscape.org/namespaces/inkscape"
   xmlns:sodipodi="http://sodipodi.sourceforge.net/DTD/sodipodi-0.dtd"
   xmlns="http://www.w3.org/2000/svg"
   xmlns:svg="http://www.w3.org/2000/svg">
  <sodipodi:namedview
     id="namedview3700"
     pagecolor="#ffffff"
     bordercolor="#666666"
     borderopacity="1.0"
     inkscape:pageshadow="2"
     inkscape:pageopacity="0.0"
     inkscape:pagecheckerboard="0"
     inkscape:document-units="mm"
     showgrid="false"
     inkscape:zoom="2.1997092"
     inkscape:cx="183.43334"
     inkscape:cy="285.26498"
     inkscape:window-width="1918"
     inkscape:window-height="2102"
     inkscape:window-x="1920"
     inkscape:window-y="58"
     inkscape:window-maximized="1"
     inkscape:current-layer="layer1" />
  <defs
     id="defs3695" />
  <g
     inkscape:label="Layer 1"
     inkscape:groupmode="layer"
     id="layer1"
     transform="translate(-35.251686,32.598172)">
    <path
       class="st1"
       d="m 81.8267,170.34559 v -7.53533 H 47.227138 v 7.53533 c -7.220479,5.31812 -11.90625,13.87475 -11.90625,23.5294 0,16.129 13.075708,29.2047 29.204708,29.2047 16.129,0 29.204708,-13.0757 29.204708,-29.2047 0.0026,-9.65465 -4.683125,-18.21392 -11.903604,-23.5294 z"
       id="path214"
       style="fill:#7ac943;stroke-width:0.264583;opacity:0.75" />
    <path
       class="st28"
       d="M 83.152262,171.64734 V -13.904949 c 0,-9.554104 -7.744354,-17.298458 -17.298458,-17.298458 -9.554104,0 -17.298458,7.744354 -17.298458,17.298458 V 171.64734 c -7.220479,5.31812 -11.90625,13.87475 -11.90625,23.5294 0,16.129 13.075709,29.2047 29.204708,29.2047 16.129,0 29.204708,-13.0757 29.204708,-29.2047 -0.0026,-9.65465 -4.688416,-18.21128 -11.90625,-23.5294 z M 65.618325,218.0579 c -12.686771,0 -22.97377,-10.28435 -22.97377,-22.97377 0,-8.48254 4.598458,-15.89352 11.440583,-19.87021 V -14.833637 c 0,-6.368521 5.164666,-11.533187 11.533187,-11.533187 6.368521,0 11.533188,5.164666 11.533188,11.533187 V 175.21392 c 6.839479,3.97934 11.440583,11.38767 11.440583,19.87021 0,12.68677 -10.284354,22.97377 -22.973771,22.97377 z"
       id="path221"
       style="fill:#000000;stroke:#000000;stroke-width:0.186029;stroke-miterlimit:10;opacity:0.75" />
    <path
       class="st28"
       d="M 81.847867,170.34559 V -15.206699 c 0,-9.554104 -7.744354,-17.298458 -17.298458,-17.298458 -9.554105,0 -17.298459,7.744354 -17.298459,17.298458 V 170.34559 c -7.220479,5.31812 -11.906249,13.87475 -11.906249,23.5294 0,16.129 13.075708,29.2047 29.204708,29.2047 16.128999,0 29.204707,-13.0757 29.204707,-29.2047 0,-9.65465 -4.68577,-18.21392 -11.906249,-23.5294 z m -17.531292,46.41056 c -12.68677,0 -22.97377,-10.28435 -22.97377,-22.97377 0,-8.48254 4.598458,-15.89352 11.440583,-19.87021 V -16.135387 c 0,-6.368521 5.164666,-11.533187 11.533187,-11.533187 6.368521,0 11.533188,5.164666 11.533188,11.533187 V 173.91217 c 6.839479,3.97934 11.440583,11.38767 11.440583,19.87021 0,12.68677 -10.287,22.97377 -22.973771,22.97377 z"
       id="path227"
       style="fill:#ffffff;stroke:#000000;stroke-width:0.186029;stroke-miterlimit:10" />
    <circle
       cx="65.480743"
       cy="195.36194"
       r="14.509749"
       id="circle232"
       style="stroke-width:0.264583" />
    <ellipse
       class="st29"
       cx="64.176353"
       cy="194.06018"
       id="circle236"
       style="fill:#7ac943;stroke-width:0.264583"
       rx="14.51"
       ry="14.509749" />
    <line
       id="Mast_3_"
       class="st30"
       x1="62.684097"
       y1="187.02226"
       x2="62.684097"
       y2="199.44713"
       style="fill:#ffc80c;stroke:#ffffff;stroke-width:1.09823;stroke-linecap:round;stroke-miterlimit:10" />
    <path
       id="Flagge_3_"
       class="st12"
       d="m 70.756533,190.3719 -6.11452,-3.52954 c -0.214313,-0.12435 -0.478896,0.0317 -0.478896,0.27781 v 7.05909 c 0,0.24606 0.267229,0.39952 0.478896,0.27781 l 6.11452,-3.52954 c 0.214313,-0.12436 0.214313,-0.43127 0,-0.55563 z"
       style="fill:#ffffff;stroke-width:0.264583" />
    <line
       class="st31"
       x1="75.897392"
       y1="163.36852"
       x2="52.743702"
       y2="163.36852"
       id="line247"
       style="fill:#7ac943;stroke:#000000;stroke-width:1.77266;stroke-miterlimit:10" />
    <path
       class="st28"
       d="m 65.991388,162.14615 c -1.082146,1.08744 -1.082146,2.84692 0,3.93436 3.849687,3.86556 12.729104,12.07823 18.661062,12.07823 7.757583,0 14.044083,-6.28915 14.044083,-14.04409 0,-7.75493 -6.289146,-14.04408 -14.044083,-14.04408 -5.931958,-0.003 -14.811375,8.21002 -18.661062,12.07558 z"
       id="path268"
       style="fill:#000000;stroke:#000000;stroke-width:0.186029;stroke-miterlimit:10;opacity:0.75" />
    <path
       class="st12"
       d="m 64.689638,160.8444 c -1.082146,1.08744 -1.082146,2.84692 0,3.93436 3.849687,3.86556 12.729104,12.07823 18.661062,12.07823 7.757583,0 14.044083,-6.28915 14.044083,-14.04409 0,-7.75493 -6.289146,-14.04408 -14.044083,-14.04408 -5.931958,-0.003 -14.811375,8.21002 -18.661062,12.07558 z"
       id="path272"
       style="fill:#ffffff;stroke-width:0.264583;stroke:#000000" />
  </g>
</svg>
