<svg xmlns="http://www.w3.org/2000/svg" width="240.143" height="971.613" viewBox="0 0 63.538 257.073">
  <g transform="translate(-35.252 32.598)">
    <path class="st1" d="M81.827 170.346v-7.536h-34.6v7.536c-7.22 5.318-11.906 13.874-11.906 23.529 0 16.129 13.076 29.205 29.205 29.205 16.129 0 29.204-13.076 29.204-29.205.003-9.655-4.683-18.214-11.903-23.53z" style="fill:#7ac943;stroke-width:.264583;opacity:.75"/>
    <path class="st28" d="M83.152 171.647V-13.905c0-9.554-7.744-17.298-17.298-17.298-9.554 0-17.299 7.744-17.299 17.298v185.552c-7.22 5.318-11.906 13.875-11.906 23.53 0 16.129 13.076 29.204 29.205 29.204 16.129 0 29.205-13.075 29.205-29.204-.003-9.655-4.689-18.212-11.907-23.53zm-17.534 46.41c-12.686 0-22.973-10.283-22.973-22.973 0-8.482 4.598-15.893 11.44-19.87V-14.834c0-6.368 5.165-11.533 11.533-11.533 6.369 0 11.534 5.165 11.534 11.533v190.048c6.839 3.98 11.44 11.388 11.44 19.87 0 12.687-10.284 22.974-22.974 22.974z" style="fill:#000;stroke:#000;stroke-width:.186029;stroke-miterlimit:10;opacity:.75"/>
    <path class="st28" d="M81.848 170.346V-15.207c0-9.554-7.744-17.298-17.299-17.298-9.554 0-17.298 7.744-17.298 17.298v185.553c-7.22 5.318-11.906 13.874-11.906 23.529 0 16.129 13.075 29.205 29.204 29.205 16.13 0 29.205-13.076 29.205-29.205 0-9.655-4.686-18.214-11.906-23.53zm-17.531 46.41c-12.687 0-22.974-10.284-22.974-22.974 0-8.482 4.598-15.893 11.44-19.87V-16.135c0-6.369 5.165-11.534 11.534-11.534 6.368 0 11.533 5.165 11.533 11.534v190.047c6.84 3.98 11.44 11.388 11.44 19.87 0 12.687-10.287 22.974-22.973 22.974z" style="fill:#fff;stroke:#000;stroke-width:.186029;stroke-miterlimit:10"/>
    <circle cx="65.481" cy="195.362" r="14.51" style="stroke-width:.264583"/>
    <circle class="st29" cx="64.176" cy="194.06" style="fill:#7ac943;stroke-width:.264583" r="14.51"/>
    <path class="st30" style="fill:#ffc80c;stroke:#fff;stroke-width:1.09823;stroke-linecap:round;stroke-miterlimit:10" d="M62.684 187.022v12.425"/>
    <path class="st12" d="m70.757 190.372-6.115-3.53a.319.319 0 0 0-.479.278v7.06c0 .245.267.399.479.277l6.115-3.53a.32.32 0 0 0 0-.555z" style="fill:#fff;stroke-width:.264583"/>
    <path class="st31" style="fill:#7ac943;stroke:#000;stroke-width:1.77266;stroke-miterlimit:10" d="M75.897 163.369H52.744"/>
    <path class="st28" d="M65.991 162.146a2.79 2.79 0 0 0 0 3.935c3.85 3.865 12.73 12.078 18.661 12.078 7.758 0 14.045-6.29 14.045-14.044 0-7.755-6.29-14.044-14.045-14.044-5.932-.003-14.81 8.21-18.66 12.075z" style="fill:#000;stroke:#000;stroke-width:.186029;stroke-miterlimit:10;opacity:.75"/>
    <path class="st12" d="M64.69 160.844a2.79 2.79 0 0 0 0 3.935c3.85 3.865 12.729 12.078 18.66 12.078 7.758 0 14.045-6.29 14.045-14.044 0-7.755-6.29-14.044-14.044-14.044-5.932-.003-14.812 8.21-18.661 12.075z" style="fill:#fff;stroke-width:.264583;stroke:#000"/>
  </g>
</svg>
