<svg xmlns="http://www.w3.org/2000/svg" width="28" height="28" viewBox="0 0 28 28">
    <g fill="none" fill-rule="evenodd">
        <g fill="currentColor">
            <g>
                <g>
                    <path d="M22.324 9.57c0-.197 0-.393-.014-.588.89-.644 1.658-1.44 2.268-2.353-.83.367-1.71.608-2.61.715.948-.568 1.659-1.462 1.998-2.514-.892.53-1.869.902-2.887 1.103-1.409-1.498-3.648-1.865-5.461-.894-1.814.97-2.75 3.036-2.286 5.04-3.655-.183-7.06-1.91-9.368-4.75-1.207 2.078-.59 4.735 1.407 6.069-.723-.022-1.43-.217-2.063-.57v.058c0 2.164 1.526 4.028 3.647 4.457-.67.182-1.371.209-2.053.078.596 1.851 2.302 3.12 4.247 3.156-1.61 1.265-3.598 1.952-5.645 1.95-.362 0-.723-.022-1.082-.065C4.5 21.796 6.919 22.503 9.39 22.5c8.36.004 12.934-6.924 12.934-12.93z" transform="translate(-975 -79) translate(964 68.023) translate(11.5 11.5)"/>
                </g>
            </g>
        </g>
    </g>
</svg>
