<svg width="60.714" height="56.212" viewBox="0 0 16.064 14.873" xmlns="http://www.w3.org/2000/svg"><g class="st53" style="opacity:.45"><path class="st54" d="M8.135 1.584a6.358 6.358 0 1 0 .001 12.717 6.358 6.358 0 0 0 0-12.717zm0 10.758a4.402 4.402 0 0 1-4.402-4.4 4.402 4.402 0 0 1 8.802 0 4.4 4.4 0 0 1-4.4 4.4z"/><path class="st12" d="m14.493 1.584-13.01 12.91"/><path class="st54" d="M15.528 2.624c-.593.487-1.17.992-1.752 1.487l-1.73 1.508-3.46 3.016-3.47 3.009-1.746 1.492-.873.746c-.29.249-.603.476-1.003.617-.005.002-.008 0-.01-.006v-.005c.14-.4.37-.71.622-.997l.75-.868 1.506-1.736 3.035-3.445 3.043-3.44 1.521-1.72c.5-.579 1.008-1.153 1.5-1.74a1.473 1.473 0 1 1 2.067 2.082z"/><g><path class="st12" d="M14.446 14.544 1.534 1.534"/><path class="st54" d="M14.2 14.784.492 2.566A1.47 1.47 0 1 1 2.574.5l12.112 13.798a.344.344 0 0 1-.031.486.337.337 0 0 1-.455 0z"/></g></g></svg>