<svg xmlns="http://www.w3.org/2000/svg" xml:space="preserve" width="923.988" height="134.479" viewBox="0 0 923.988 134.479" preserveAspectRatio="xMidYMid meet"><path d="M3097.16 1549.25v-401.98h-116.47v56.3c-36.68-44.13-94.92-73.35-178.24-73.35-160.73 0-262.47 112.42-262.47 245.57v286.44c0 142.13 106.03 258.33 280.27 258.33 170.03 0 271.74-112.38 271.74-249.45v-10.86h-141.61v10.86c0 69.03-47.83 126.72-130.13 126.72-88.69 0-138.13-60.61-138.13-136.08v-271.54c0-80.54 50.15-137.27 141.87-137.27 84.51 0 142.39 45.84 142.39 136.8v39.05h-149.62v120.46h280.4M3301.15 1527.52v-25.38h197.84v25.15c0 55.32-34.24 97.84-99.88 97.84-63.85 0-97.96-42.52-97.96-97.61zm332.64-189.25v-6.05c0-112.66-86.36-198.8-231.72-198.8-144.71 0-231.07 90.29-231.07 208.75v187.49c0 117.75 85.2 208.74 228.11 208.74 145.34 0 230.03-90.99 230.03-208.98v-132.16h-327.99v-52.96c0-55.8 35.28-97.61 100.92-97.61 65 0 102.21 37.66 102.21 87.18v4.4h129.51M4003.17 1738.4v-126.16h-38.84c-75.43 0-126.43-43.11-126.43-121.03v-343.94h-130.15v577.29h118.79v-65.58c31.06 49.07 82.06 79.42 154.94 79.42h21.69M4781.21 1147.27H4651.7l-.64 389.16c-.07 53.88-27.07 88.7-83.1 88.7-54.4 0-86.44-36.24-86.44-92.63v-385.23h-130.14v389.16c0 53.88-27.27 88.7-83.1 88.7-50.52 0-81.67-30.54-86.43-79.16v-398.7h-130.14v577.29h118.8v-48.32c28.59 38.52 72.73 62.16 133.63 62.16 64.23 0 112.42-24.68 142.25-63.05 30.39 39.05 77.89 63.05 144.38 63.05 121.28 0 190.44-81.29 190.44-180.01v-411.12M5174.57 1313.88c0 44.3-31.93 83.03-97.48 83.03-62.77 0-99.29-38.73-99.29-83.03 0-44.3 36.52-82.56 99.29-82.56 65.55 0 97.48 38.26 97.48 82.56zm125.35 215.54v-382.15h-113.77v40.92c-30.7-32.12-76.49-54.77-139.98-54.77-128.92 0-200.13 79.05-200.13 180.46 0 101.42 75.31 180.47 210.64 180.47 46.78 0 83.97-12.4 112.62-31.82v65.36c0 58.51-30.98 97.24-88.3 97.24-53.14 0-88.3-31.28-88.3-82.34v-9.72h-130.15v10.68c0 113.58 86.42 194.65 218.45 194.65 137.09 0 218.92-90.99 218.92-208.98M5840.67 1553.74v-406.47h-130.15v380.13c0 58.88-31.06 97.73-94.06 97.73-59.33 0-93.57-38.26-93.57-97.73v-380.13h-130.15v577.29h118.81v-50.09c28.96 39.63 73.95 63.93 136.35 63.93 124.7 0 192.77-83.08 192.77-184.66M6601.75 1795.63l-342.1-525.58h340.3v-122.13h-509.54v108.52l339.36 525.59h-327.74v122.13h499.72v-108.53M6777.14 1528.16v-25.37h197.84v25.14c0 55.34-34.25 97.85-99.89 97.85-63.84 0-97.95-42.51-97.95-97.62zm332.64-189.25v-6.05c0-112.65-86.36-198.79-231.72-198.79-144.71 0-231.08 90.29-231.08 208.75v187.49c0 117.75 85.21 208.73 228.11 208.73 145.35 0 230.04-90.98 230.04-208.97V1397.9h-327.99v-52.96c0-55.8 35.27-97.62 100.92-97.62 65 0 102.2 37.67 102.2 87.2v4.39h129.52M7479.16 1739.04v-126.16h-38.85c-75.43 0-126.42-43.1-126.42-121.01v-343.95h-130.15v577.29h118.79v-65.59c31.05 49.08 82.06 79.42 154.94 79.42h21.69M7733.46 1625.78c-64.5 0-99.89-42.51-99.89-97.62v-183.22c0-55.1 35.39-97.62 99.89-97.62 64.48 0 99.88 42.52 99.88 97.62v183.22c0 55.11-35.4 97.62-99.88 97.62zm230.03-95.47v-187.49c0-117.76-85.25-208.75-230.03-208.75-144.8 0-230.04 90.99-230.04 208.75v187.49c0 117.75 85.24 208.73 230.04 208.73 144.78 0 230.03-90.98 230.03-208.73M1169.35 1647.2v-122.3h373.99l-.18 374.43-122.3-.05.08-166.18-182.72 182.72-86.47-86.48 182.14-182.14h-164.54" style="fill:#fbc01c;fill-opacity:1;fill-rule:nonzero;stroke:none" transform="matrix(.13333 0 0 -.13333 -137.81 270.133)"/><path d="M1919.58 1879.02c-98.02 94.78-228.2 146.98-366.56 146.98v-122.3c218.98 0 397.14-171.36 397.14-381.99 0-210.64-178.16-381.99-397.14-381.99s-397.14 171.35-397.14 381.99h-122.3c0-135.09 54.3-261.98 152.88-357.32 98.02-94.78 228.2-146.98 366.56-146.98s268.54 52.2 366.56 146.98c98.58 95.34 152.87 222.23 152.87 357.32s-54.29 261.98-152.87 357.31" style="fill:#fbc01c;fill-opacity:1;fill-rule:nonzero;stroke:none" transform="matrix(.13333 0 0 -.13333 -137.81 270.133)"/></svg>
