<svg xmlns="http://www.w3.org/2000/svg" xml:space="preserve" width="769.557" height="274.632" viewBox="0 0 769.557 274.632"><path d="M3806.88 2879.72v-477.29h-138.29v66.85c-43.55-52.4-112.71-87.09-211.64-87.09-190.83 0-311.64 133.46-311.64 291.57v340.11c0 168.75 125.89 306.72 332.78 306.72 201.88 0 322.65-133.44 322.65-296.18v-12.9h-168.15v12.9c0 81.95-56.78 150.46-154.5 150.46-105.31 0-164.01-71.97-164.01-161.57v-322.43c0-95.62 59.54-162.97 168.45-162.97 100.34 0 169.06 54.42 169.06 162.42v46.36h-177.64v143.04h332.93M4049.08 2853.92v-30.14h234.91v29.86c0 65.69-40.66 116.17-118.6 116.17-75.81 0-116.31-50.48-116.31-115.89zm394.96-224.71v-7.18c0-133.77-102.54-236.05-275.13-236.05-171.82 0-274.36 107.21-274.36 247.86v222.61c0 139.81 101.16 247.85 270.84 247.85 172.58 0 273.13-108.04 273.13-248.13v-156.93h-389.44v-62.88c0-66.25 41.89-115.89 119.83-115.89 77.18 0 121.35 44.72 121.35 103.51v5.23h153.78M4882.63 3104.3v-149.8h-46.13c-89.56 0-150.1-51.18-150.1-143.69v-408.38h-154.54v685.44h141.04V3010c36.89 58.27 97.43 94.3 183.98 94.3h25.75M5806.44 2402.43h-153.78l-.77 462.06c-.07 63.98-32.13 105.32-98.67 105.32-64.58 0-102.62-43.03-102.62-109.97v-457.41h-154.53v462.06c0 63.98-32.38 105.32-98.67 105.32-59.99 0-96.96-36.26-102.62-93.98v-473.4h-154.53v685.44h141.07v-57.37c33.94 45.74 86.36 73.8 158.66 73.8 76.27 0 133.49-29.3 168.9-74.86 36.08 46.37 92.48 74.86 171.43 74.86 144.01 0 226.13-96.52 226.13-213.73v-488.14M6273.49 2600.24c0 52.62-37.92 98.6-115.75 98.6-74.53 0-117.89-45.98-117.89-98.6 0-52.59 43.36-98.02 117.89-98.02 77.83 0 115.75 45.43 115.75 98.02zm148.83 255.93v-453.74h-135.08v48.59c-36.46-38.14-90.83-65.04-166.21-65.04-153.08 0-237.62 93.86-237.62 214.26 0 120.43 89.41 214.28 250.1 214.28 55.53 0 99.71-14.71 133.72-37.77v77.6c0 69.47-36.78 115.46-104.85 115.46-63.09 0-104.84-37.14-104.84-97.76v-11.55h-154.53v12.68c0 134.87 102.61 231.12 259.37 231.12 162.78 0 259.94-108.04 259.94-248.13M7064.38 2885.04v-482.61h-154.54v451.35c0 69.91-36.87 116.03-111.69 116.03-70.44 0-111.08-45.43-111.08-116.03v-451.35h-154.54v685.44h141.06v-59.48c34.39 47.06 87.82 75.91 161.9 75.91 148.06 0 228.89-98.65 228.89-219.26M3754.35 2047.33l-406.19-624.05h404.05v-145.01h-604.99v128.85l402.93 624.06h-389.13v145.01h593.33v-128.86M3962.59 1729.77v-30.14h234.92v29.85c0 65.71-40.66 116.18-118.61 116.18-75.8 0-116.31-50.47-116.31-115.89zm394.97-224.72v-7.18c0-133.77-102.55-236.03-275.14-236.03-171.82 0-274.36 107.19-274.36 247.85v222.61c0 139.81 101.16 247.85 270.84 247.85 172.58 0 273.13-108.04 273.13-248.13V1575.1h-389.44v-62.88c0-66.27 41.89-115.91 119.83-115.91 77.18 0 121.36 44.73 121.36 103.52v5.22h153.78M4796.14 1980.15v-149.81h-46.12c-89.56 0-150.12-51.17-150.12-143.68v-408.39h-154.53v685.45h141.05v-77.87c36.88 58.27 97.43 94.3 183.97 94.3h25.75M5098.08 1845.66c-76.57 0-118.6-50.47-118.6-115.89v-217.55c0-65.43 42.03-115.91 118.6-115.91 76.56 0 118.59 50.48 118.59 115.91v217.55c0 65.42-42.03 115.89-118.59 115.89zm273.12-113.36v-222.61c0-139.83-101.21-247.85-273.12-247.85-171.92 0-273.14 108.02-273.14 247.85v222.61c0 139.81 101.22 247.85 273.14 247.85 171.91 0 273.12-108.04 273.12-247.85M1462.25 2848.47v-152.74h467.11l-.23 467.65-152.74-.07.09-207.55-228.2 228.21-108.01-108.01 227.49-227.49h-205.51" style="fill:#fbc01c;fill-opacity:1;fill-rule:nonzero;stroke:none" transform="matrix(.13333 0 0 -.13333 -172.36 442.877)"/><path d="M2399.26 3138.01c-122.42 118.38-285.01 183.57-457.81 183.57v-152.74c273.49 0 496-214.03 496-477.1 0-263.07-222.51-477.09-496-477.09-273.51 0-496.01 214.02-496.01 477.09H1292.7c0-168.72 67.8-327.21 190.92-446.26 122.43-118.38 285.02-183.58 457.83-183.58 172.8 0 335.39 65.2 457.81 183.58 123.13 119.05 190.94 277.54 190.94 446.26 0 168.72-67.81 327.21-190.94 446.27" style="fill:#fbc01c;fill-opacity:1;fill-rule:nonzero;stroke:none" transform="matrix(.13333 0 0 -.13333 -172.36 442.877)"/></svg>
