<?xml version="1.0" encoding="UTF-8" standalone="no"?>
<!-- Created with Inkscape (http://www.inkscape.org/) -->

<svg
   width="44.190708mm"
   height="42.89954mm"
   viewBox="0 0 44.190708 42.89954"
   version="1.1"
   id="svg100"
   xmlns="http://www.w3.org/2000/svg"
   xmlns:svg="http://www.w3.org/2000/svg">
  <defs
     id="defs97" />
  <g
     id="layer1"
     transform="translate(-67.504646,-92.105788)">
    <g
       id="ICONS"
       transform="matrix(0.26458333,0,0,0.26458333,45.949042,-491.9381)">
      <g
         id="LOGO_German_Zero_1_">
        <polygon
           class="st3"
           points="129.75,2268.31 103.3,2268.31 103.3,2287.97 163.42,2287.97 163.4,2227.77 143.73,2227.78 143.75,2254.5 114.37,2225.12 100.47,2239.03 "
           id="polygon416" />
        <path
           class="st3"
           d="m 223.91,2231.04 c -15.76,-15.24 -36.69,-23.63 -58.93,-23.63 v 19.66 c 35.2,0 63.84,27.55 63.84,61.41 0,33.86 -28.64,61.41 -63.84,61.41 -35.2,0 -63.84,-27.55 -63.84,-61.41 H 81.47 c 0,21.72 8.73,42.12 24.58,57.44 15.76,15.24 36.69,23.63 58.93,23.63 22.24,0 43.17,-8.39 58.93,-23.63 15.85,-15.32 24.58,-35.72 24.58,-57.44 0,-21.72 -8.73,-42.12 -24.58,-57.44 z"
           id="path418" />
      </g>
    </g>
  </g>
</svg>
