<svg xmlns="http://www.w3.org/2000/svg" xml:space="preserve" width="440.184" height="431.371" viewBox="0 0 440.184 431.371"><path d="M1745.15 2533.02v-402.06h-116.5v56.31c-36.68-44.15-94.94-73.36-178.28-73.36-160.76 0-262.52 112.43-262.52 245.61v286.51c0 142.15 106.05 258.37 280.33 258.37 170.06 0 271.79-112.4 271.79-249.5v-10.86h-141.64v10.86c0 69.05-47.83 126.76-130.15 126.76-88.71 0-138.16-60.63-138.16-136.11v-271.61c0-80.55 50.15-137.29 141.9-137.29 84.53 0 142.42 45.85 142.42 136.83v39.05h-149.65v120.49h280.46M1949.17 2511.29v-25.39h197.89v25.15c0 55.34-34.25 97.87-99.91 97.87-63.86 0-97.98-42.53-97.98-97.63zm332.71-189.3v-6.04c0-112.69-86.38-198.85-231.77-198.85-144.73 0-231.12 90.31-231.12 208.79v187.53c0 117.77 85.22 208.79 228.16 208.79 145.38 0 230.08-91.02 230.08-209.03v-132.19h-328.06v-52.97c0-55.81 35.29-97.63 100.94-97.63 65.02 0 102.24 37.68 102.24 87.2v4.4h129.53M2651.34 2722.21v-126.19h-38.85c-75.44 0-126.45-43.12-126.45-121.05v-344.01h-130.18v577.4h118.82v-65.59c31.06 49.09 82.07 79.44 154.97 79.44h21.69M3429.54 2130.96h-129.53l-.64 389.24c-.07 53.89-27.08 88.72-83.12 88.72-54.4 0-86.46-36.25-86.46-92.65v-385.31h-130.16v389.24c0 53.89-27.29 88.72-83.12 88.72-50.53 0-81.69-30.55-86.46-79.18v-398.78h-130.16v577.4h118.83v-48.32c28.59 38.52 72.74 62.17 133.65 62.17 64.25 0 112.45-24.69 142.28-63.06 30.4 39.05 77.91 63.06 144.42 63.06 121.3 0 190.47-81.31 190.47-180.05v-411.2M3822.99 2297.6c0 44.31-31.95 83.05-97.5 83.05-62.79 0-99.31-38.74-99.31-83.05 0-44.31 36.52-82.58 99.31-82.58 65.55 0 97.5 38.27 97.5 82.58zm125.38 215.58v-382.22h-113.8v40.92c-30.7-32.11-76.51-54.78-140.01-54.78-128.95 0-200.17 79.07-200.17 180.5 0 101.44 75.32 180.5 210.68 180.5 46.79 0 83.99-12.39 112.64-31.82v65.37c0 58.53-30.98 97.27-88.32 97.27-53.15 0-88.32-31.29-88.32-82.36v-9.72H3510.9v10.68c0 113.6 86.44 194.69 218.49 194.69 137.12 0 218.98-91.02 218.98-209.03M4489.23 2537.51v-406.55h-130.18v380.21c0 58.89-31.07 97.75-94.09 97.75-59.34 0-93.58-38.28-93.58-97.75v-380.21H4041.2v577.4h118.83v-50.1c28.97 39.64 73.97 63.95 136.39 63.95 124.72 0 192.81-83.1 192.81-184.7M2413.25 1815.76l-342.17-525.68h340.37v-122.16h-509.64v108.54l339.42 525.71h-327.8v122.15h499.82v-108.56M2588.67 1548.25v-25.38h197.89v25.14c0 55.35-34.26 97.88-99.91 97.88-63.86 0-97.98-42.53-97.98-97.64zm332.71-189.29v-6.06c0-112.68-86.38-198.83-231.77-198.83-144.74 0-231.12 90.3-231.12 208.79v187.53c0 117.77 85.22 208.78 228.16 208.78 145.38 0 230.08-91.01 230.08-209.01v-132.2h-328.06v-52.97c0-55.82 35.29-97.64 100.94-97.64 65.02 0 102.23 37.68 102.23 87.21v4.4h129.54M3290.84 1759.17v-126.19h-38.86c-75.44 0-126.44-43.11-126.44-121.05v-344.01h-130.19v577.41h118.82v-65.59c31.06 49.08 82.08 79.43 154.97 79.43h21.7M3545.19 1645.89c-64.5 0-99.91-42.53-99.91-97.64v-183.26c0-55.11 35.41-97.64 99.91-97.64s99.9 42.53 99.9 97.64v183.26c0 55.11-35.4 97.64-99.9 97.64zm230.07-95.5v-187.53c0-117.78-85.25-208.79-230.07-208.79-144.83 0-230.08 91.01-230.08 208.79v187.53c0 117.77 85.25 208.78 230.08 208.78 144.82 0 230.07-91.01 230.07-208.78M2369.62 3954.24v-140.47h429.58l-.21 430.08-140.47-.07.09-190.87-209.88 209.88-99.33-99.33 209.22-209.22h-189" style="fill:#fbc01c;fill-opacity:1;fill-rule:nonzero;stroke:none" transform="matrix(.13333 0 0 -.13333 -158.38 585.247)"/><path d="M3231.36 4220.51c-112.59 108.87-262.12 168.84-421.04 168.84v-140.48c251.53 0 456.15-196.83 456.15-438.77 0-241.94-204.62-438.77-456.15-438.77-251.53 0-456.16 196.83-456.16 438.77h-140.48c0-155.17 62.36-300.92 175.59-410.41 112.6-108.87 262.13-168.83 421.05-168.83 158.92 0 308.45 59.96 421.04 168.83 113.23 109.49 175.59 255.24 175.59 410.41 0 155.17-62.36 300.93-175.59 410.41" style="fill:#fbc01c;fill-opacity:1;fill-rule:nonzero;stroke:none" transform="matrix(.13333 0 0 -.13333 -158.38 585.247)"/></svg>